<svg width="52" height="52" viewBox="0 0 52 52" fill="none" xmlns="http://www.w3.org/2000/svg">
<path d="M1 17C1 8.16344 8.16344 1 17 1H35C43.8366 1 51 8.16344 51 17V35C51 43.8366 43.8366 51 35 51H17C8.16344 51 1 43.8366 1 35V17Z" fill="#08081B"/>
<path d="M26.0613 41.7407C34.7887 41.7407 41.8637 34.6657 41.8637 25.9382C41.8637 17.2107 34.7887 10.1357 26.0613 10.1357C17.3338 10.1357 10.2588 17.2107 10.2588 25.9382C10.2588 34.6657 17.3338 41.7407 26.0613 41.7407Z" fill="#E60000"/>
<path d="M26.1841 34.7434C21.8429 34.7546 17.3231 31.0495 17.3008 25.1012C17.2897 21.1729 19.4212 17.3897 22.1331 15.1354C24.778 12.9481 28.405 11.5419 31.6971 11.5308C32.1212 11.5308 32.5676 11.5642 32.8355 11.6535C29.9562 12.2562 27.6684 14.9234 27.6796 17.9589C27.6796 18.0593 27.6907 18.1709 27.7019 18.2156C32.5007 19.3874 34.688 22.3001 34.6992 26.3177C34.7215 30.3241 31.5409 34.7323 26.1841 34.7434Z" fill="white"/>
<path d="M17 2H35V0H17V2ZM50 17V35H52V17H50ZM35 50H17V52H35V50ZM2 35V17H0V35H2ZM17 50C8.71573 50 2 43.2843 2 35H0C0 44.3888 7.61116 52 17 52V50ZM50 35C50 43.2843 43.2843 50 35 50V52C44.3888 52 52 44.3888 52 35H50ZM35 2C43.2843 2 50 8.71573 50 17H52C52 7.61116 44.3888 0 35 0V2ZM17 0C7.61116 0 0 7.61116 0 17H2C2 8.71573 8.71573 2 17 2V0Z" fill="#6D6F81"/>
</svg>
